# xmcd CD database file
#
# Track frame offsets:
#	150
#	20965
#	36811
#	53806
#	70242
#	84710
#	101965
#	115951
#	131657
#	147582
#	167486
#	183882
#	204296
#	224393
#
# Disc length: 3261 seconds
#
# Revision: 0
# Processed by: cddbd v1.5.2PL0 Copyright (c) Steve Scherf et al.
# Submitted via: CDex 1.51
#
DISCID=d30cbb0e
DTITLE=Joey Montana  - Flow Con Clase
DYEAR=2011
DGENRE=Merengue
TTITLE0=Tus Ojos No Me Ven
TTITLE1=Unico Amor
TTITLE2=No Lo Vuelvo A Hacer (feat. Angel Lopez)
TTITLE3=La Melodia
TTITLE4=Como Hacer
TTITLE5=Sin Ti
TTITLE6=Corazon Frio
TTITLE7=Si Muriera Manana
TTITLE8=Aun Asi
TTITLE9=Con Un Beso
TTITLE10=Ni Una Lagrima
TTITLE11=Ella Va Caer (feat. Lul-G)
TTITLE12=Mi Ex
TTITLE13=Freaky
EXTD=YEAR: 2011
EXTT0=
EXTT1=
EXTT2=
EXTT3=
EXTT4=
EXTT5=
EXTT6=
EXTT7=
EXTT8=
EXTT9=
EXTT10=
EXTT11=
EXTT12=
EXTT13=
PLAYORDER=
